# xmcd CD database file
#
# Track frame offsets:
#	150
#	14033
#	29296
#	41133
#	55438
#	70932
#	85737
#	99720
#	114946
#	141137
#	209573
#	224614
#	238790
#	252977
#	266337
#	280531
#	295083
#	308086
#	321545
#
# Disc length: 4647 seconds
#
# Revision: 1
# Processed by: cddbd v1.5.2PL0 Copyright (c) Steve Scherf et al.
# Submitted via: CDex 1.51
#
DISCID=27122513
DTITLE=Lionel Hampton - Jivin' the vibes - CD 2
DYEAR=2005
DGENRE=Jazz
TTITLE0=Pig Foot Sonata
TTITLE1=Smart Alec
TTITLE2=Three-Quarter Boogie
TTITLE3=Flying Home
TTITLE4=In The Bag
TTITLE5=Hamp's Boogie-Woogie
TTITLE6=Loose Wig
TTITLE7=Blow Top Blues
TTITLE8=Rocking In Rythm
TTITLE9=Stardust
TTITLE10=Midnight Sun
TTITLE11=Mingus Fingers
TTITLE12=The Hucklebuck
TTITLE13=Gladysee Bounce
TTITLE14=Air Mail Special
TTITLE15=Samson's Boogie
TTITLE16=Kingfish
TTITLE17=Gabby's Gabbin'
TTITLE18=Date With Oscar
EXTD=YEAR: 2005
EXTT0=
EXTT1=
EXTT2=
EXTT3=
EXTT4=
EXTT5=
EXTT6=
EXTT7=
EXTT8=
EXTT9=
EXTT10=
EXTT11=
EXTT12=
EXTT13=
EXTT14=
EXTT15=
EXTT16=
EXTT17=
EXTT18=
PLAYORDER=
